<svg width="1570" height="485" viewBox="0 0 1570 485" fill="none" xmlns="http://www.w3.org/2000/svg">
<path d="M193.116 73.4853C194.706 73.4753 196.306 73.4753 197.896 73.4653C202.236 73.4453 206.576 73.4553 210.926 73.4653C215.616 73.4653 220.316 73.4553 225.016 73.4453C234.196 73.4153 243.386 73.4153 252.576 73.4253C260.046 73.4353 267.516 73.4353 274.996 73.4253C276.056 73.4253 277.126 73.4253 278.216 73.4253C280.386 73.4253 282.546 73.4153 284.716 73.4153C304.986 73.4053 325.266 73.4053 345.536 73.4253C364.066 73.4453 382.596 73.4253 401.126 73.3953C420.176 73.3653 439.226 73.3553 458.266 73.3653C460.426 73.3653 462.586 73.3653 464.736 73.3653C465.806 73.3653 466.866 73.3753 467.956 73.3753C475.416 73.3753 482.866 73.3653 490.326 73.3453C499.426 73.3353 508.516 73.3353 517.616 73.3553C522.246 73.3653 526.886 73.3653 531.516 73.3453C535.776 73.3353 540.026 73.3353 544.276 73.3653C545.806 73.3653 547.336 73.3653 548.866 73.3553C563.506 73.2353 577.466 76.4153 588.996 85.9953C597.596 94.8553 604.096 104.895 604.386 117.505C604.416 118.775 604.446 120.045 604.486 121.355C604.506 122.735 604.526 124.115 604.546 125.485C604.556 126.185 604.566 126.885 604.576 127.615C604.636 131.315 604.666 135.025 604.696 138.725C604.726 141.785 604.786 144.825 604.866 147.875C604.966 151.585 605.016 155.285 605.026 158.985C605.036 160.385 605.066 161.795 605.116 163.195C605.476 174.095 605.476 174.095 601.816 178.815C599.316 181.095 596.766 183.065 593.996 184.995C592.866 185.965 591.746 186.935 590.636 187.935C583.836 193.705 576.936 199.315 569.796 204.655C568.566 205.575 567.346 206.495 566.126 207.425C514.646 246.545 452.236 273.565 390.656 292.195C388.866 292.735 387.086 293.285 385.296 293.845C346.196 306.015 305.746 313.315 264.996 316.995C264.206 317.085 263.416 317.165 262.596 317.245C255.786 317.925 249.046 318.185 242.206 318.235C241.106 318.245 240.006 318.255 238.866 318.265C235.326 318.295 231.786 318.305 228.246 318.315C226.436 318.315 226.436 318.315 224.596 318.325C196.906 318.325 171.046 315.695 144.556 307.375C143.826 307.145 143.096 306.915 142.346 306.675C140.566 306.115 138.776 305.555 136.996 304.995C136.906 280.025 136.836 255.055 136.796 230.075C136.776 218.485 136.746 206.885 136.696 195.285C136.656 185.175 136.636 175.065 136.626 164.955C136.616 159.605 136.606 154.255 136.576 148.905C136.546 143.865 136.546 138.825 136.546 133.775C136.546 131.935 136.536 130.085 136.526 128.245C136.446 118.435 136.566 110.005 140.996 100.995C141.506 99.9553 142.016 98.9153 142.536 97.8353C149.756 86.2053 160.246 78.6553 173.286 74.8153C179.866 73.3653 186.426 73.4453 193.116 73.4853Z" fill="#3F40EA"/>
<path d="M604 239C604.12 257.42 604.21 275.84 604.26 294.26C604.28 302.82 604.32 311.37 604.38 319.92C604.43 327.38 604.46 334.84 604.47 342.31C604.48 346.25 604.49 350.2 604.53 354.14C604.56 357.87 604.57 361.59 604.57 365.31C604.57 367.31 604.59 369.31 604.62 371.31C604.55 383.44 601.11 393.88 593 403C592.32 403.87 592.32 403.87 591.62 404.76C587.79 409.22 583.17 411.75 578 414.38C577.32 414.72 576.65 415.07 575.95 415.42C575.29 415.75 574.62 416.07 573.94 416.4C573.35 416.68 572.76 416.97 572.15 417.26C567.07 419 561.72 419.12 556.39 419.12C555.1 419.12 553.81 419.12 552.48 419.12C551.07 419.12 549.66 419.12 548.25 419.11C546.75 419.11 545.26 419.11 543.76 419.11C539.7 419.11 535.65 419.11 531.6 419.1C527.36 419.1 523.11 419.09 518.87 419.09C510.85 419.09 502.82 419.08 494.8 419.07C485.66 419.06 476.52 419.06 467.38 419.05C448.59 419.04 429.79 419.02 411 419C411 428.24 411 437.48 411 447C415.59 446.91 415.59 446.91 420.27 446.82C423.27 446.79 426.26 446.75 429.25 446.73C431.32 446.7 433.38 446.67 435.45 446.62C438.43 446.56 441.41 446.53 444.4 446.51C445.76 446.47 445.76 446.47 447.16 446.43C456.56 446.43 463.68 450.4 470.69 456.5C473.78 459.14 476.85 461.68 480.19 464C481.12 464.66 482.04 465.32 483 466C483 466.33 483 466.66 483 467C408.75 467 334.5 467 258 467C261.55 463.45 264.72 460.53 268.69 457.56C269.64 456.84 270.59 456.12 271.57 455.38C272.12 455.01 272.66 454.64 273.22 454.26C275.06 453.01 275.06 453.01 276.81 451.39C285.74 444.49 297.45 446.36 308.12 446.63C310.25 446.66 312.37 446.68 314.49 446.71C319.66 446.77 324.83 446.89 330 447C330 437.76 330 428.52 330 419C327.13 419.01 327.13 419.01 324.2 419.03C306.13 419.11 288.06 419.17 269.99 419.21C260.7 419.23 251.42 419.26 242.13 419.3C234.03 419.34 225.93 419.37 217.83 419.38C213.54 419.38 209.26 419.39 204.97 419.42C200.93 419.45 196.89 419.46 192.85 419.45C191.37 419.45 189.9 419.46 188.42 419.48C174 419.62 163 416.58 152 407C147.7 402.73 143.85 398.38 141 393C141 392.01 141 391.02 141 390C141.55 390.06 142.09 390.11 142.66 390.17C211.93 397.12 282.99 391.36 350 372C351.6 371.54 351.6 371.54 353.23 371.07C396.49 358.5 439.77 343.94 479.83 323.12C482.25 321.87 484.68 320.65 487.11 319.43C519.42 303.08 550.56 283.32 578.41 260.15C580.21 258.66 582.02 257.19 583.84 255.73C588.97 251.6 593.8 247.4 598.34 242.63C602.03 239 602.03 239 604 239Z" fill="#3F40EA"/>
<path d="M129 128C129.93 131.61 130.01 134.4 129 138C125.83 142.14 121.54 145.35 117.55 148.67C115.05 150.82 112.97 153.24 110.86 155.77C109.37 157.56 107.85 159.3 106.3 161.04C87.31 182.47 69.78 208.65 68 238C67.93 239.1 67.86 240.19 67.79 241.32C67.23 259.01 73.06 274.33 84 288C84.52 288.7 85.04 289.39 85.58 290.11C96.91 304.39 116.14 313.47 133 319C134.32 319.51 135.63 320.03 136.94 320.56C164.92 331.1 195.9 332.56 225.44 332.38C226.69 332.37 227.95 332.37 229.25 332.36C249.64 332.3 269.75 331.45 290 329C291.35 328.84 292.7 328.69 294.05 328.53C302.11 327.59 310.06 326.35 318 324.69C319.06 324.47 320.12 324.25 321.21 324.03C323.4 323.58 325.6 323.12 327.79 322.66C330.85 322.03 333.92 321.42 336.99 320.81C422.08 303.82 509.46 268.32 579 216C579.59 215.56 580.19 215.12 580.8 214.66C593.87 204.92 606.16 194.2 618 183C618.5 182.53 618.99 182.06 619.51 181.58C626.6 174.84 632.81 167.73 638.72 159.93C640.41 157.76 642.04 155.9 644 154C637.64 174.92 624.49 194.84 609.38 210.52C607.42 212.56 605.57 214.63 603.73 216.77C594.12 227.81 583.57 238.04 572 247C570.83 247.95 569.66 248.9 568.49 249.85C560.22 256.58 551.78 262.96 543 269C542.25 269.52 541.5 270.04 540.73 270.57C493.9 302.79 442.54 326.38 388.98 344.95C386.1 345.97 383.24 347.02 380.38 348.09C375.07 350.03 369.71 351.56 364.25 353C362.81 353.39 362.81 353.39 361.34 353.78C358.56 354.52 355.78 355.26 353 356C351.64 356.37 350.27 356.73 348.91 357.1C346.52 357.74 344.14 358.37 341.75 359C339.02 359.73 336.29 360.47 333.56 361.21C322.12 364.33 310.66 366.87 299 369C297.95 369.2 296.89 369.39 295.8 369.59C286.89 371.23 277.96 372.67 269 374C268.33 374.1 267.65 374.2 266.96 374.31C244.45 377.67 222.04 378.37 199.31 378.38C198 378.38 196.69 378.38 195.33 378.38C180.43 378.38 165.77 378.01 151 376C149.84 375.85 148.68 375.71 147.48 375.56C113.78 371.18 78.59 362.25 52 340C51.47 339.56 50.94 339.13 50.39 338.68C32.86 324.11 22.42 305.13 20.17 282.33C19.31 270.45 21.7 259.31 25 248C25.29 246.97 25.57 245.95 25.87 244.89C32.24 223.93 45.53 204.23 60 188C60.81 187.08 61.63 186.16 62.46 185.21C67.71 179.37 73.15 173.75 78.69 168.19C79.29 167.58 79.9 166.97 80.52 166.34C92.67 154.24 106.28 143.45 119.94 133.13C120.96 132.35 120.96 132.35 122 131.56C126.76 128 126.76 128 129 128Z" fill="#121243"/>
<path d="M664 73C664.99 84.88 665.98 96.76 667 109C670.96 109.66 674.92 110.32 679 111C682.72 111.8 686.42 112.62 690.13 113.5C691.06 113.71 691.99 113.93 692.95 114.14C693.83 114.35 694.72 114.56 695.63 114.78C696.43 114.97 697.22 115.15 698.04 115.35C700 116 701.9 117.7 702 118C702.1 118.3 680.88 127.24 670 132C670.65 140.15 670.65 140.15 671.32 148.3C671.81 154.56 672.11 160.73 672 167C667.53 163.35 663.64 159.62 659.91 155.23C656.94 151.77 653.82 148.44 650.72 145.1C649 143 649.1 141 649 141C648.9 141 647.56 141.64 646.09 142.29C642.54 143.85 638.99 145.42 635.44 146.98C633.9 147.66 632.36 148.34 630.82 149.02C628.62 149.99 626.41 150.97 624.2 151.94C623.51 152.24 622.82 152.55 622.11 152.87C617.23 155 617.23 155 615 155C616.43 151.06 618.31 147.72 620.55 144.18C621.23 143.09 621.91 142 622.61 140.87C623.68 139.14 624.76 137.42 625.85 135.71C626.91 134.04 627.95 132.36 628.98 130.68C629.61 129.69 630.24 128.69 630.88 127.67C632.28 125.11 632.28 125.11 631.35 122.83C629.22 119.94 626.78 117.35 624.31 114.75C623.23 113.59 622.15 112.44 621.07 111.28C620.54 110.72 620.02 110.16 619.48 109.58C617.54 107.51 614.84 103.82 612.95 101.71C608.32 95.6 609 96.68 609 96C612.94 96.76 616.88 97.54 620.81 98.31C621.91 98.53 623.01 98.74 624.15 98.96C631.19 100.35 638.1 102 645 104C645.4 102.94 645.4 102.94 645.8 101.85C647.07 98.85 648.57 96.14 650.22 93.33C651.15 91.75 651.15 91.75 652.1 90.13C652.75 89.03 653.4 87.94 654.06 86.81C655.35 84.63 656.63 82.45 657.91 80.27C658.48 79.31 661.15 74.84 663.83 73.05L664 73Z" fill="#2294AD"/>
<path d="M799.744 242L838.912 187.6L838.784 205.648L801.152 152.4H829.696L853.76 187.088L841.6 187.216L865.28 152.4H892.672L855.04 204.624V186.704L894.72 242H865.536L841.088 205.52H852.736L828.672 242H799.744ZM934.66 243.152C926.468 243.152 919.3 241.616 913.156 238.544C907.097 235.387 902.361 231.12 898.948 225.744C895.62 220.283 893.956 214.096 893.956 207.184C893.956 200.272 895.577 194.128 898.82 188.752C902.148 183.291 906.713 179.067 912.516 176.08C918.319 173.008 924.847 171.472 932.1 171.472C938.927 171.472 945.156 172.88 950.788 175.696C956.42 178.427 960.9 182.48 964.228 187.856C967.556 193.232 969.22 199.76 969.22 207.44C969.22 208.293 969.177 209.275 969.092 210.384C969.007 211.493 968.921 212.517 968.836 213.456H913.924V200.656H955.908L946.692 204.24C946.777 201.083 946.18 198.352 944.9 196.048C943.705 193.744 941.999 191.952 939.78 190.672C937.647 189.392 935.129 188.752 932.228 188.752C929.327 188.752 926.767 189.392 924.548 190.672C922.415 191.952 920.751 193.787 919.556 196.176C918.361 198.48 917.764 201.211 917.764 204.368V208.08C917.764 211.493 918.447 214.437 919.812 216.912C921.263 219.387 923.311 221.307 925.956 222.672C928.601 223.952 931.759 224.592 935.428 224.592C938.841 224.592 941.743 224.123 944.132 223.184C946.607 222.16 949.039 220.624 951.428 218.576L964.228 231.888C960.9 235.557 956.804 238.373 951.94 240.336C947.076 242.213 941.316 243.152 934.66 243.152ZM980.433 242V172.624H1003.6V192.848L1000.15 187.088C1002.19 181.883 1005.52 178 1010.13 175.44C1014.74 172.795 1020.33 171.472 1026.9 171.472V193.36C1025.79 193.189 1024.81 193.104 1023.95 193.104C1023.19 193.019 1022.33 192.976 1021.39 192.976C1016.44 192.976 1012.43 194.341 1009.36 197.072C1006.29 199.717 1004.75 204.069 1004.75 210.128V242H980.433ZM1075.18 242V229.072L1073.51 225.872V202.064C1073.51 198.224 1072.32 195.28 1069.93 193.232C1067.62 191.099 1063.91 190.032 1058.79 190.032C1055.46 190.032 1052.09 190.587 1048.68 191.696C1045.27 192.72 1042.37 194.171 1039.98 196.048L1031.78 179.536C1035.71 176.976 1040.4 175.013 1045.86 173.648C1051.41 172.197 1056.91 171.472 1062.38 171.472C1073.64 171.472 1082.34 174.075 1088.49 179.28C1094.72 184.4 1097.83 192.464 1097.83 203.472V242H1075.18ZM1054.7 243.152C1049.15 243.152 1044.46 242.213 1040.62 240.336C1036.78 238.459 1033.83 235.899 1031.78 232.656C1029.82 229.413 1028.84 225.787 1028.84 221.776C1028.84 217.509 1029.91 213.84 1032.04 210.768C1034.26 207.611 1037.63 205.221 1042.15 203.6C1046.67 201.893 1052.52 201.04 1059.69 201.04H1076.07V213.712H1063.02C1059.09 213.712 1056.32 214.352 1054.7 215.632C1053.16 216.912 1052.39 218.619 1052.39 220.752C1052.39 222.885 1053.2 224.592 1054.82 225.872C1056.45 227.152 1058.66 227.792 1061.48 227.792C1064.13 227.792 1066.51 227.152 1068.65 225.872C1070.87 224.507 1072.49 222.459 1073.51 219.728L1076.84 228.688C1075.56 233.467 1073.04 237.093 1069.29 239.568C1065.62 241.957 1060.75 243.152 1054.7 243.152ZM832.256 343.088H873.856V362.032H832.256V343.088ZM834.048 378.416H880.896V398H808.96V308.4H879.232V327.984H834.048V378.416ZM938.992 327.472C944.368 327.472 949.232 328.581 953.584 330.8C957.936 332.933 961.349 336.261 963.824 340.784C966.384 345.307 967.664 351.152 967.664 358.32V398H943.344V362.288C943.344 357.339 942.32 353.755 940.272 351.536C938.309 349.232 935.536 348.08 931.952 348.08C929.392 348.08 927.045 348.677 924.912 349.872C922.779 350.981 921.115 352.731 919.92 355.12C918.725 357.509 918.128 360.624 918.128 364.464V398H893.808V328.624H916.976V348.336L912.496 342.576C915.141 337.541 918.768 333.787 923.376 331.312C927.984 328.752 933.189 327.472 938.992 327.472ZM1028.12 327.472C1033.49 327.472 1038.36 328.581 1042.71 330.8C1047.06 332.933 1050.47 336.261 1052.95 340.784C1055.51 345.307 1056.79 351.152 1056.79 358.32V398H1032.47V362.288C1032.47 357.339 1031.45 353.755 1029.4 351.536C1027.43 349.232 1024.66 348.08 1021.08 348.08C1018.52 348.08 1016.17 348.677 1014.04 349.872C1011.9 350.981 1010.24 352.731 1009.05 355.12C1007.85 357.509 1007.25 360.624 1007.25 364.464V398H982.933V303.024H1007.25V348.336L1001.62 342.576C1004.27 337.541 1007.89 333.787 1012.5 331.312C1017.11 328.752 1022.31 327.472 1028.12 327.472ZM1114.43 398V385.072L1112.76 381.872V358.064C1112.76 354.224 1111.57 351.28 1109.18 349.232C1106.87 347.099 1103.16 346.032 1098.04 346.032C1094.71 346.032 1091.34 346.587 1087.93 347.696C1084.52 348.72 1081.62 350.171 1079.23 352.048L1071.03 335.536C1074.96 332.976 1079.65 331.013 1085.11 329.648C1090.66 328.197 1096.16 327.472 1101.63 327.472C1112.89 327.472 1121.59 330.075 1127.74 335.28C1133.97 340.4 1137.08 348.464 1137.08 359.472V398H1114.43ZM1093.95 399.152C1088.4 399.152 1083.71 398.213 1079.87 396.336C1076.03 394.459 1073.08 391.899 1071.03 388.656C1069.07 385.413 1068.09 381.787 1068.09 377.776C1068.09 373.509 1069.16 369.84 1071.29 366.768C1073.51 363.611 1076.88 361.221 1081.4 359.6C1085.92 357.893 1091.77 357.04 1098.94 357.04H1115.32V369.712H1102.27C1098.34 369.712 1095.57 370.352 1093.95 371.632C1092.41 372.912 1091.64 374.619 1091.64 376.752C1091.64 378.885 1092.45 380.592 1094.07 381.872C1095.7 383.152 1097.91 383.792 1100.73 383.792C1103.38 383.792 1105.76 383.152 1107.9 381.872C1110.12 380.507 1111.74 378.459 1112.76 375.728L1116.09 384.688C1114.81 389.467 1112.29 393.093 1108.54 395.568C1104.87 397.957 1100 399.152 1093.95 399.152ZM1197.62 327.472C1202.99 327.472 1207.86 328.581 1212.21 330.8C1216.56 332.933 1219.97 336.261 1222.45 340.784C1225.01 345.307 1226.29 351.152 1226.29 358.32V398H1201.97V362.288C1201.97 357.339 1200.95 353.755 1198.9 351.536C1196.93 349.232 1194.16 348.08 1190.58 348.08C1188.02 348.08 1185.67 348.677 1183.54 349.872C1181.4 350.981 1179.74 352.731 1178.55 355.12C1177.35 357.509 1176.75 360.624 1176.75 364.464V398H1152.43V328.624H1175.6V348.336L1171.12 342.576C1173.77 337.541 1177.39 333.787 1182 331.312C1186.61 328.752 1191.81 327.472 1197.62 327.472ZM1277.89 399.152C1270.21 399.152 1263.34 397.616 1257.28 394.544C1251.31 391.472 1246.61 387.248 1243.2 381.872C1239.79 376.411 1238.08 370.181 1238.08 363.184C1238.08 356.187 1239.79 350 1243.2 344.624C1246.61 339.248 1251.31 335.067 1257.28 332.08C1263.34 329.008 1270.21 327.472 1277.89 327.472C1285.74 327.472 1292.52 329.136 1298.24 332.464C1303.96 335.792 1308.01 340.485 1310.4 346.544L1291.59 356.144C1289.96 352.901 1287.96 350.555 1285.57 349.104C1283.18 347.568 1280.58 346.8 1277.76 346.8C1274.95 346.8 1272.39 347.44 1270.08 348.72C1267.78 350 1265.94 351.877 1264.58 354.352C1263.3 356.741 1262.66 359.685 1262.66 363.184C1262.66 366.768 1263.3 369.797 1264.58 372.272C1265.94 374.747 1267.78 376.624 1270.08 377.904C1272.39 379.184 1274.95 379.824 1277.76 379.824C1280.58 379.824 1283.18 379.099 1285.57 377.648C1287.96 376.112 1289.96 373.723 1291.59 370.48L1310.4 380.08C1308.01 386.139 1303.96 390.832 1298.24 394.16C1292.52 397.488 1285.74 399.152 1277.89 399.152ZM1355.16 399.152C1346.97 399.152 1339.8 397.616 1333.66 394.544C1327.6 391.387 1322.86 387.12 1319.45 381.744C1316.12 376.283 1314.46 370.096 1314.46 363.184C1314.46 356.272 1316.08 350.128 1319.32 344.752C1322.65 339.291 1327.21 335.067 1333.02 332.08C1338.82 329.008 1345.35 327.472 1352.6 327.472C1359.43 327.472 1365.66 328.88 1371.29 331.696C1376.92 334.427 1381.4 338.48 1384.73 343.856C1388.06 349.232 1389.72 355.76 1389.72 363.44C1389.72 364.293 1389.68 365.275 1389.59 366.384C1389.51 367.493 1389.42 368.517 1389.34 369.456H1334.42V356.656H1376.41L1367.19 360.24C1367.28 357.083 1366.68 354.352 1365.4 352.048C1364.21 349.744 1362.5 347.952 1360.28 346.672C1358.15 345.392 1355.63 344.752 1352.73 344.752C1349.83 344.752 1347.27 345.392 1345.05 346.672C1342.91 347.952 1341.25 349.787 1340.06 352.176C1338.86 354.48 1338.26 357.211 1338.26 360.368V364.08C1338.26 367.493 1338.95 370.437 1340.31 372.912C1341.76 375.387 1343.81 377.307 1346.46 378.672C1349.1 379.952 1352.26 380.592 1355.93 380.592C1359.34 380.592 1362.24 380.123 1364.63 379.184C1367.11 378.16 1369.54 376.624 1371.93 374.576L1384.73 387.888C1381.4 391.557 1377.3 394.373 1372.44 396.336C1367.58 398.213 1361.82 399.152 1355.16 399.152ZM1431.14 399.152C1424.83 399.152 1419.07 397.701 1413.86 394.8C1408.74 391.813 1404.65 387.675 1401.57 382.384C1398.5 377.008 1396.97 370.608 1396.97 363.184C1396.97 355.845 1398.5 349.531 1401.57 344.24C1404.65 338.864 1408.74 334.725 1413.86 331.824C1419.07 328.923 1424.83 327.472 1431.14 327.472C1437.11 327.472 1442.15 328.752 1446.25 331.312C1450.43 333.872 1453.58 337.797 1455.72 343.088C1457.85 348.379 1458.92 355.077 1458.92 363.184C1458.92 371.461 1457.89 378.245 1455.85 383.536C1453.8 388.827 1450.73 392.752 1446.63 395.312C1442.53 397.872 1437.37 399.152 1431.14 399.152ZM1436.26 379.824C1438.99 379.824 1441.42 379.184 1443.56 377.904C1445.78 376.624 1447.53 374.747 1448.81 372.272C1450.09 369.712 1450.73 366.683 1450.73 363.184C1450.73 359.685 1450.09 356.741 1448.81 354.352C1447.53 351.877 1445.78 350 1443.56 348.72C1441.42 347.44 1438.99 346.8 1436.26 346.8C1433.45 346.8 1430.93 347.44 1428.71 348.72C1426.58 350 1424.87 351.877 1423.59 354.352C1422.31 356.741 1421.67 359.685 1421.67 363.184C1421.67 366.683 1422.31 369.712 1423.59 372.272C1424.87 374.747 1426.58 376.624 1428.71 377.904C1430.93 379.184 1433.45 379.824 1436.26 379.824ZM1451.49 398V386.096L1451.62 363.184L1450.34 340.272V303.024H1474.66V398H1451.49Z" fill="#121243"/>
</svg>
